<?xml version="1.0" encoding="UTF-8"?>
<svg id="Layer_3" xmlns="http://www.w3.org/2000/svg" viewBox="0 0 632 113">
  <defs>
    <style>
      .cls-1 {
        fill: #334155;
      }

      .cls-2 {
        fill: #64748b;
      }
    </style>
  </defs>
  <g>
    <path d="M180.34,75.46l7.04,5.89c-1.05,1.62-2.8,3.52-5.26,5.73-2.45,2.21-5.54,4.14-9.25,5.78-3.72,1.65-8.03,2.47-12.93,2.47-6.87,0-12.95-1.6-18.24-4.78-5.29-3.19-9.41-7.53-12.35-13.03s-4.42-11.72-4.42-18.66c0-5.12.84-9.9,2.52-14.35s4.08-8.38,7.2-11.77c3.12-3.39,6.83-6.06,11.14-7.99,4.31-1.92,9.09-2.89,14.35-2.89,4.98,0,9.25.75,12.83,2.26,3.57,1.5,6.53,3.33,8.88,5.46,2.35,2.14,4.19,4.19,5.52,6.15l-7.15,6.09c-1.12-1.61-2.54-3.26-4.26-4.94-1.72-1.68-3.85-3.1-6.41-4.25-2.56-1.16-5.66-1.74-9.3-1.74-5.12,0-9.51,1.26-13.19,3.78-3.68,2.52-6.52,5.87-8.51,10.04-2,4.17-3,8.81-3,13.92s1,9.64,3,13.77c2,4.14,4.82,7.41,8.46,9.83,3.64,2.42,7.95,3.63,12.93,3.63,4.2,0,7.64-.67,10.3-2,2.66-1.33,4.78-2.82,6.36-4.47,1.58-1.64,2.82-2.96,3.73-3.94Z"/>
    <path d="M197.47,93.65V23.54h9.35v28.49c.84-1.19,1.95-2.43,3.31-3.73s3.12-2.4,5.26-3.31c2.14-.91,4.71-1.36,7.73-1.36,6.37,0,11.1,1.88,14.19,5.62,3.08,3.75,4.62,8.78,4.62,15.09v29.33h-9.46v-28.59c0-4.55-1-7.9-2.99-10.04-2-2.14-4.75-3.21-8.25-3.21s-6.41.93-8.51,2.79-3.59,4.26-4.47,7.2c-.88,2.95-1.31,5.99-1.31,9.15v22.71h-9.46Z"/>
    <path d="M293.87,80.82l5.36,5.68c-.7.84-1.96,1.94-3.78,3.31-1.82,1.37-4.19,2.59-7.1,3.68-2.91,1.08-6.43,1.63-10.56,1.63-5.05,0-9.5-1.1-13.35-3.31-3.85-2.2-6.85-5.29-8.99-9.25s-3.21-8.53-3.21-13.72c0-4.76,1.03-9.07,3.1-12.93,2.07-3.85,4.94-6.92,8.62-9.19s7.9-3.42,12.67-3.42c5.68,0,10.27,1.37,13.77,4.1,3.5,2.73,6.06,6.27,7.67,10.61,1.61,4.35,2.42,9.01,2.42,13.98h-38.58c.07,2.87.84,5.45,2.31,7.72,1.47,2.28,3.42,4.06,5.83,5.36s5.03,1.95,7.83,1.95c4.13,0,7.55-.7,10.25-2.1,2.7-1.4,4.61-2.77,5.73-4.1ZM261.91,64.95h28.8c-.28-3.78-1.61-7.01-3.99-9.67-2.38-2.67-5.75-4-10.09-4-3.01,0-5.61.67-7.78,2-2.17,1.34-3.84,3.03-5,5.1-1.15,2.07-1.8,4.26-1.94,6.57Z"/>
    <path d="M347.68,80.82l5.78,6.1c-2.17,2.45-4.87,4.43-8.09,5.94-3.22,1.51-6.9,2.26-11.04,2.26-5.26,0-9.8-1.12-13.61-3.36s-6.78-5.31-8.88-9.2-3.15-8.36-3.15-13.4c0-4.76,1.08-9.11,3.26-13.03,2.17-3.92,5.2-7.06,9.09-9.41,3.89-2.35,8.32-3.52,13.3-3.52,4.13,0,7.78.73,10.93,2.2,3.15,1.48,5.85,3.47,8.09,5.99l-6.2,5.99c-1.47-1.82-3.26-3.26-5.36-4.31s-4.59-1.58-7.46-1.58c-3.36,0-6.25.82-8.67,2.47-2.42,1.65-4.26,3.8-5.52,6.47-1.26,2.66-1.89,5.57-1.89,8.72s.65,5.87,1.94,8.57c1.3,2.7,3.14,4.89,5.52,6.57,2.38,1.68,5.26,2.52,8.62,2.52,2.87,0,5.45-.54,7.73-1.63,2.28-1.08,4.15-2.54,5.62-4.36Z"/>
    <path d="M362.72,93.65V23.54h9.46v41.31l20.5-20.08h11.35l-18.5,18.08,21.23,30.8h-11.25l-16.61-24.49-6.73,6.52v17.98h-9.46Z"/>
    <path d="M414.85,93.65l3.26-70.11h9.67l21.34,36.48,21.34-36.48h9.46l3.26,70.11h-9.88l-2.31-53.82-19.76,33.11h-5.05l-19.45-32.69-2.42,53.4h-9.46Z"/>
    <path d="M526.69,93.65l-.21-5.89c-1.75,2.38-4.15,4.19-7.2,5.41-3.05,1.22-6.12,1.84-9.2,1.84-2.66,0-5.31-.49-7.94-1.47-2.63-.98-4.8-2.59-6.52-4.84-1.72-2.24-2.57-5.22-2.57-8.93,0-5.26,1.86-9.46,5.57-12.61,3.71-3.15,9-4.73,15.87-4.73,1.54,0,3.13.05,4.78.16,1.64.11,3.13.21,4.47.31,1.33.11,2.21.19,2.63.27v-1.79c0-3.64-1.1-6.25-3.31-7.83-2.21-1.58-5.2-2.37-8.99-2.37s-6.57.51-8.78,1.53c-2.21,1.01-4.05,2.05-5.52,3.1l-4.42-6.41c1.75-1.4,4.17-2.77,7.25-4.1,3.08-1.33,7.25-2,12.51-2,6.24,0,11.18,1.52,14.82,4.58,3.64,3.05,5.47,7.37,5.47,12.98v30.27c0,.7.03,1.54.1,2.52h-8.83ZM526.38,76.09v-5.57c-.35-.14-1.16-.27-2.42-.37-1.26-.1-2.68-.21-4.26-.31s-3.1-.16-4.57-.16c-3.5,0-6.18.51-8.04,1.52-1.86,1.02-3.12,2.28-3.78,3.78-.67,1.51-1,3-1,4.47,0,2.59.91,4.59,2.73,5.99,1.82,1.4,4.34,2.1,7.57,2.1,2.45,0,4.71-.54,6.78-1.63,2.07-1.09,3.75-2.51,5.05-4.26s1.95-3.61,1.95-5.57Z"/>
    <path d="M552.55,77.67v-25.01h-8.83v-7.88h8.83l-.16-21h10l-.38,21h14.29v7.88h-14.29v24.07c0,3.92.61,6.62,1.84,8.1,1.22,1.47,2.96,2.21,5.2,2.21,1.82,0,3.35-.28,4.57-.84,1.22-.56,2.4-1.4,3.52-2.52l4.31,5.78c-2.03,1.96-4.12,3.38-6.25,4.26-2.14.87-4.68,1.31-7.62,1.31-5.12,0-8.9-1.42-11.35-4.26-2.45-2.84-3.68-7.2-3.68-13.09Z"/>
    <path d="M624.77,80.82l5.36,5.68c-.7.84-1.96,1.94-3.78,3.31-1.82,1.37-4.19,2.59-7.1,3.68-2.91,1.08-6.43,1.63-10.56,1.63-5.05,0-9.5-1.1-13.35-3.31-3.85-2.2-6.85-5.29-8.99-9.25s-3.21-8.53-3.21-13.72c0-4.76,1.03-9.07,3.1-12.93,2.07-3.85,4.94-6.92,8.62-9.19s7.9-3.42,12.67-3.42c5.68,0,10.27,1.37,13.77,4.1,3.5,2.73,6.06,6.27,7.67,10.61,1.61,4.35,2.42,9.01,2.42,13.98h-38.58c.07,2.87.84,5.45,2.31,7.72,1.47,2.28,3.42,4.06,5.83,5.36s5.03,1.95,7.83,1.95c4.13,0,7.55-.7,10.25-2.1,2.7-1.4,4.61-2.77,5.73-4.1ZM592.81,64.95h28.8c-.28-3.78-1.61-7.01-3.99-9.67-2.38-2.67-5.75-4-10.09-4-3.01,0-5.61.67-7.78,2-2.17,1.34-3.84,3.03-5,5.1-1.15,2.07-1.8,4.26-1.94,6.57Z"/>
  </g>
  <g>
    <path class="cls-2" d="M102.13,18.33c.21.46.16.99-.12,1.4l-5.86,8.63-11.65,17.16-18.77,27.63-1.46,2.15c-.27.39-.72.63-1.19.63h-17.79c-.48,0-.92-.24-1.19-.63l-1.46-2.14-7.2-10.58-3.16-4.64c-.33-.49-.33-1.13,0-1.62l9.8-14.43c.57-.84,1.81-.84,2.39,0l2.52,3.7,6,8.83c.57.84,1.81.84,2.39,0l15.93-23.45,10.79-15.89L91.81.75c.63-.93,2.05-.81,2.51.22l7.81,17.36Z"/>
    <path class="cls-1" d="M90.06,95.37c.84.47.99,1.62.3,2.29-1.07,1.05-2.2,2.06-3.37,3.02-3.02,2.49-6.37,4.67-10.01,6.49-9.05,4.51-18.76,6.2-28.14,5.4-4.42-.37-8.75-1.3-12.92-2.75-.44-.15-.88-.31-1.31-.47-3.2-1.19-6.26-2.68-9.13-4.43-5.54-3.38-10.41-7.74-14.36-12.85C4.16,83.11.01,71.84.01,59.61c0-5.68.89-11.16,2.55-16.29,1.59-4.95,3.9-9.59,6.79-13.78,1.21-1.77,2.54-3.47,3.97-5.07,2.66-3,5.65-5.71,8.92-8.04,5.22-3.73,11.14-6.54,17.53-8.18l.04.07c4.3-1.12,8.81-1.72,13.46-1.72,4.07,0,8.04.46,11.86,1.33,1.48.34,2.94.74,4.37,1.2.92.29,1.29,1.39.75,2.19l-9.83,14.48c-.32.47-.88.7-1.45.61-1.85-.31-3.75-.47-5.69-.47-.13,0-.25,0-.37,0-2.85.03-5.62.4-8.27,1.09-2.86.73-5.59,1.83-8.12,3.23-5.78,3.2-10.55,8.01-13.7,13.83-2.65,4.9-4.16,10.51-4.16,16.47,0,1.07.05,2.12.14,3.16.56,3.93,1.78,7.64,3.55,11.03.18.39.36.78.55,1.17.48.95.99,1.87,1.54,2.77,2.36,3.41,5.26,6.29,8.52,8.58,5.42,3.79,11.83,5.97,18.43,6.25,2.77.12,5.58-.09,8.36-.66,2.79-.57,5.56-1.49,8.23-2.8.11-.05.22-.11.33-.16,1.73-.87,3.37-1.86,4.89-2.97.46-.33,1.07-.38,1.56-.1l15.26,8.56Z"/>
    <path class="cls-2" d="M9.08,69.53c0-24.11,19.55-43.66,43.66-43.66,2.15,0,4.26.16,6.32.46.55.08,1.1-.15,1.41-.61l9.8-14.42c.54-.8.17-1.89-.75-2.19-1.43-.46-2.89-.86-4.37-1.2-3.81-.87-7.78-1.33-11.86-1.33-4.65,0-9.16.6-13.46,1.72l-.04-.07c-6.39,1.65-12.31,4.45-17.53,8.18-3.27,2.34-6.27,5.04-8.92,8.04-1.43,1.61-2.75,3.3-3.97,5.07-2.9,4.19-5.2,8.83-6.79,13.78C.91,48.45.02,53.93.02,59.61c0,12.23,4.14,23.5,11.1,32.47,3.96,5.11,8.83,9.47,14.36,12.85,2.87,1.76,5.93,3.25,9.13,4.43.44.16.87.32,1.31.47.03.01.06.02.1.03-15.81-6.56-26.94-22.15-26.94-40.33Z"/>
  </g>
</svg>