<?xml version="1.0" encoding="UTF-8"?>
<svg id="Layer_3" xmlns="http://www.w3.org/2000/svg" viewBox="0 0 361 397">
  <defs>
    <style>
      .cls-1 {
        fill: #fff;
      }
    </style>
  </defs>
  <g>
    <path class="cls-1" d="M360.23,64.19c.72,1.61.56,3.48-.43,4.94l-20.63,30.38-41.04,60.41-66.08,97.28-5.15,7.58c-.95,1.39-2.52,2.22-4.2,2.22h-62.65c-1.68,0-3.25-.83-4.2-2.22l-5.14-7.55-25.35-37.25-11.12-16.35c-1.17-1.72-1.17-3.99,0-5.71l34.52-50.8c2.01-2.96,6.38-2.97,8.4,0l8.86,13.02,21.14,31.09c2.02,2.96,6.39,2.96,8.4,0l56.09-82.57,38.01-55.95L323.91,2.28c2.23-3.29,7.2-2.85,8.83.77l27.49,61.14Z"/>
    <path class="cls-1" d="M211.11,326.53c-9.78,1.99-19.66,2.74-29.43,2.33-23.26-1-45.83-8.66-64.91-22.02-11.49-8.06-21.72-18.21-30.02-30.22-1.95-3.13-3.75-6.38-5.43-9.74-.68-1.36-1.33-2.74-1.95-4.12.29.54.57,1.08.85,1.61,11.1,20.47,27.88,37.41,48.24,48.68,17.13,9.5,36.79,14.99,57.71,15.2.44.02.87.02,1.31.02,7.96,0,15.75-.76,23.29-2.23l.33.49Z"/>
    <path class="cls-1" d="M317.74,335.47c2.96,1.66,3.5,5.7,1.07,8.07-3.79,3.7-7.75,7.24-11.88,10.63-10.64,8.75-22.43,16.43-35.26,22.84-31.85,15.89-66.05,21.83-99.09,19.03-15.55-1.31-30.82-4.58-45.48-9.67-1.55-.52-3.09-1.08-4.62-1.65-11.27-4.18-22.04-9.42-32.15-15.61-19.5-11.89-36.65-27.26-50.58-45.25C15.26,292.27.68,252.59.68,209.53c0-20.01,3.15-39.29,8.99-57.37,5.6-17.43,13.73-33.75,23.92-48.52,4.27-6.24,8.94-12.21,13.96-17.86,9.36-10.58,19.9-20.09,31.43-28.32,18.38-13.14,39.23-23.02,61.73-28.81l.16.24c15.13-3.96,31.01-6.06,47.4-6.06,14.34,0,28.32,1.61,41.75,4.69,5.21,1.19,10.34,2.59,15.38,4.21,3.23,1.04,4.55,4.9,2.64,7.7l-34.63,50.98c-1.13,1.66-3.11,2.47-5.09,2.14-6.52-1.09-13.22-1.65-20.05-1.65-.44,0-.87,0-1.31.02-10.05.11-19.81,1.42-29.13,3.83-10.08,2.58-19.68,6.43-28.58,11.37-20.36,11.27-37.14,28.21-48.24,48.68-9.34,17.26-14.64,37.01-14.64,58.01,0,3.75.17,7.46.51,11.13,1.96,13.82,6.29,26.91,12.51,38.83.62,1.38,1.27,2.75,1.95,4.12,1.68,3.36,3.48,6.6,5.43,9.74,8.3,12.02,18.52,22.16,30.02,30.22,19.08,13.36,41.65,21.02,64.91,22.02,9.77.41,19.65-.33,29.43-2.33,9.83-2.01,19.57-5.26,28.99-9.85.4-.19.78-.38,1.17-.57,6.11-3.05,11.86-6.55,17.22-10.44,1.62-1.18,3.76-1.34,5.51-.36l53.75,30.16Z"/>
  </g>
  <path class="cls-1" d="M32.59,244.45c0-84.9,68.83-153.73,153.73-153.73,7.56,0,14.99.57,22.25,1.64,1.94.28,3.87-.54,4.97-2.16l34.5-50.79c1.91-2.8.59-6.67-2.64-7.7-5.04-1.62-10.17-3.02-15.38-4.21-13.43-3.07-27.4-4.69-41.75-4.69-16.39,0-32.26,2.11-47.4,6.06l-.16-.24c-22.5,5.79-43.35,15.67-61.73,28.81-11.53,8.23-22.07,17.75-31.43,28.32-5.02,5.65-9.69,11.62-13.96,17.86-10.2,14.77-18.32,31.09-23.92,48.52C3.83,170.24.68,189.52.68,209.53c0,43.06,14.58,82.74,39.07,114.34,13.93,17.98,31.08,33.36,50.58,45.25,10.12,6.19,20.88,11.43,32.15,15.61,1.54.57,3.07,1.12,4.62,1.65.11.04.22.07.34.11-55.68-23.11-94.86-77.98-94.86-142.03Z"/>
</svg>